<?xml version="1.0" standalone="no"?>
<!DOCTYPE svg PUBLIC "-//W3C//DTD SVG 20010904//EN"
 "http://www.w3.org/TR/2001/REC-SVG-20010904/DTD/svg10.dtd">
<svg version="1.0" xmlns="http://www.w3.org/2000/svg"
 width="1105.000000pt" height="1105.000000pt" viewBox="0 0 1105.000000 1105.000000"
 preserveAspectRatio="xMidYMid meet">
<metadata>
Created by potrace 1.11, written by Peter Selinger 2001-2013
</metadata>
<g transform="translate(0.000000,1105.000000) scale(0.100000,-0.100000)"
fill="#000000" stroke="none">
<path d="M5085 11044 c-16 -2 -79 -9 -140 -15 -961 -93 -1929 -474 -2735
-1078 -374 -280 -783 -687 -1077 -1071 -568 -743 -944 -1648 -1072 -2580 -38
-282 -46 -409 -46 -765 0 -356 8 -483 46 -765 205 -1497 1026 -2849 2266
-3737 735 -525 1603 -865 2496 -978 1574 -198 3114 262 4312 1286 163 139 477
455 613 617 668 794 1091 1718 1246 2722 46 294 56 454 56 855 0 256 -5 421
-15 531 -174 1819 -1228 3421 -2840 4315 -585 324 -1248 541 -1945 635 -184
25 -221 27 -665 29 -258 2 -483 1 -500 -1z m1235 -1754 c424 -861 773 -1567
775 -1569 3 -2 784 -117 1737 -255 1048 -153 1733 -256 1733 -263 0 -6 -562
-559 -1250 -1229 -687 -670 -1251 -1221 -1253 -1224 -1 -4 131 -782 293 -1729
163 -948 295 -1727 293 -1732 -2 -4 -700 359 -1553 807 -852 449 -1554 816
-1560 816 -5 0 -707 -367 -1560 -815 -918 -483 -1551 -811 -1553 -804 -1 7
130 786 292 1732 l295 1720 -62 63 c-34 35 -601 588 -1259 1230 -658 642
-1195 1168 -1192 1171 2 2 785 118 1739 256 955 139 1738 254 1739 256 2 2
326 659 721 1459 883 1791 835 1694 845 1684 4 -5 355 -713 780 -1574z"/>
</g>
</svg>
