<svg xmlns="http://www.w3.org/2000/svg" xmlns:xlink="http://www.w3.org/1999/xlink" viewBox="0 0 367.63 75.53"><defs><style>.cls-1{fill:url(#Sfumatura_senza_nome_4);}</style><linearGradient id="Sfumatura_senza_nome_4" x1="-2.45" y1="50.29" x2="365.21" y2="50.29" gradientUnits="userSpaceOnUse"><stop offset="0" stop-color="#12c2e9"/><stop offset="0.5" stop-color="#c471ed"/><stop offset="1" stop-color="#f64f59"/></linearGradient></defs><title>Risorsa 1</title><g id="Livello_2" data-name="Livello 2"><g id="Livello_1-2" data-name="Livello 1"><path class="cls-1" d="M5.76,64.62Q0,61,0,53.5a11.08,11.08,0,0,1,1.37-6,4.51,4.51,0,0,1,4-2.09,4.84,4.84,0,0,1,3.17,1A3.21,3.21,0,0,1,9.79,49a13.34,13.34,0,0,1-.21,2.52,8.59,8.59,0,0,1-.11,1A10.41,10.41,0,0,0,9.36,54a5.1,5.1,0,0,0,3.28,4.82q3.27,1.59,9.18,1.59,6.12,0,9.57-2.2a6.89,6.89,0,0,0,3.46-6.15,6.09,6.09,0,0,0-1.59-4.22,13.06,13.06,0,0,0-4-3Q26.93,43.71,22.61,42a74.14,74.14,0,0,1-9-4.11,18.58,18.58,0,0,1-6-5.29,13.54,13.54,0,0,1-2.49-8.32,15.93,15.93,0,0,1,2.77-9.21,18,18,0,0,1,8-6.27A31.18,31.18,0,0,1,28.15,6.55,28.94,28.94,0,0,1,37.8,8.1a15.54,15.54,0,0,1,7,4.72,11.77,11.77,0,0,1,2.63,7.77q0,4.55-1.37,6.84a4.72,4.72,0,0,1-7.16,1.15,3.57,3.57,0,0,1-1.26-2.73,14.11,14.11,0,0,1,.21-2.52c.15-1.44.22-2.35.22-2.74a5,5,0,0,0-3-4.61,15.49,15.49,0,0,0-7.35-1.58c-4.13,0-7.28.76-9.47,2.27A7.3,7.3,0,0,0,15.05,23a6.87,6.87,0,0,0,1.69,4.68A13.87,13.87,0,0,0,21,31c1.68.86,4,1.9,7.06,3.1a89.92,89.92,0,0,1,8.78,4A17.5,17.5,0,0,1,42.44,43a12.32,12.32,0,0,1,2.34,7.64q0,8.49-6.44,13.06T21.1,68.26Q11.52,68.26,5.76,64.62Z"/><path class="cls-1" d="M83.77,52.49a4.45,4.45,0,0,1,.54,2.37,6.64,6.64,0,0,1-1.37,4.47,30.71,30.71,0,0,1-6.76,6.26A14.87,14.87,0,0,1,67.75,68Q53.07,68,53.06,47.38c0-2.12.08-4.25.22-6.41H50.47a4,4,0,0,1-2.91-.79,3.53,3.53,0,0,1-.76-2.52q0-4,3.24-4h4.1a70.33,70.33,0,0,1,3.75-14.47A32.82,32.82,0,0,1,64,8.71c2.38-2.59,4.93-3.89,7.67-3.89a5.37,5.37,0,0,1,4.75,2.67,12.07,12.07,0,0,1,1.73,6.69q0,11.17-9.36,19.44h8.06a2.27,2.27,0,0,1,1.66.51A2.67,2.67,0,0,1,79,36q0,5-8.13,5H62.06c-.09,2.4-.14,4.27-.14,5.61q0,7.5,1.76,10.52a6,6,0,0,0,5.58,3,8.6,8.6,0,0,0,5.48-1.87,43.9,43.9,0,0,0,5.61-5.62,2.55,2.55,0,0,1,2-1A1.66,1.66,0,0,1,83.77,52.49ZM67.28,14.44a39.47,39.47,0,0,0-2.52,7.48,102.19,102.19,0,0,0-2,10.62,24.46,24.46,0,0,0,6.38-8.24A20.08,20.08,0,0,0,71.28,16c0-2.83-.53-4.24-1.58-4.24C69,11.74,68.17,12.64,67.28,14.44Z"/><path class="cls-1" d="M112.07,52.49a4.45,4.45,0,0,1,.54,2.37,6.64,6.64,0,0,1-1.37,4.47,26.18,26.18,0,0,1-7.53,6A20.76,20.76,0,0,1,93.31,68q-7.56,0-11.74-4.1T77.4,52.7a20.74,20.74,0,0,1,2.09-9.25,17.11,17.11,0,0,1,5.79-6.8,14.58,14.58,0,0,1,8.39-2.52,9.16,9.16,0,0,1,6.7,2.48,9,9,0,0,1,2.52,6.73,11.64,11.64,0,0,1-3.57,8.54q-3.55,3.56-12.06,5.65,1.8,3.31,6.84,3.31a15.78,15.78,0,0,0,7.38-2.27,24.39,24.39,0,0,0,7.17-5.94,2.52,2.52,0,0,1,1.94-1A1.67,1.67,0,0,1,112.07,52.49ZM88,44.28a14.37,14.37,0,0,0-1.84,7.49v.14a16.47,16.47,0,0,0,6.7-3,6,6,0,0,0,2.44-4.68A3.16,3.16,0,0,0,94.5,42a2.64,2.64,0,0,0-2-.83C90.67,41.18,89.17,42.22,88,44.28Z"/><path class="cls-1" d="M135.54,52.49a4.45,4.45,0,0,1,.54,2.37,6.64,6.64,0,0,1-1.37,4.47A31,31,0,0,1,128,65.59,14.45,14.45,0,0,1,119.73,68a10,10,0,0,1-9.39-5.76q-3.06-5.76-3.06-14.9a101.8,101.8,0,0,1,2.27-20,68,68,0,0,1,6.69-19.3Q120.67,0,126.79,0a6.13,6.13,0,0,1,5.44,3.2q2,3.21,2,9.18,0,8.58-4.76,19.88a109.91,109.91,0,0,1-12.88,22.39,8.27,8.27,0,0,0,1.65,4.21,3.92,3.92,0,0,0,3,1.26,8.34,8.34,0,0,0,5.18-1.69,39.67,39.67,0,0,0,5.69-5.8,2.52,2.52,0,0,1,1.94-1A1.66,1.66,0,0,1,135.54,52.49ZM121.46,13.1a99.09,99.09,0,0,0-3.67,14.84,107.24,107.24,0,0,0-1.73,17A92.8,92.8,0,0,0,124.2,28a46.38,46.38,0,0,0,3-15.44q0-5.47-2-5.47Q123.54,7.13,121.46,13.1Z"/><path class="cls-1" d="M159,52.49a4.45,4.45,0,0,1,.54,2.37,6.64,6.64,0,0,1-1.37,4.47,31,31,0,0,1-6.73,6.26A14.42,14.42,0,0,1,143.21,68a10,10,0,0,1-9.4-5.76q-3.06-5.76-3.06-14.9a102.56,102.56,0,0,1,2.27-20,68,68,0,0,1,6.69-19.3Q144.15,0,150.26,0a6.11,6.11,0,0,1,5.44,3.2q2,3.21,2,9.18,0,8.58-4.75,19.88A110.44,110.44,0,0,1,140,54.65a8.36,8.36,0,0,0,1.65,4.21,3.92,3.92,0,0,0,3,1.26,8.32,8.32,0,0,0,5.18-1.69,39.16,39.16,0,0,0,5.69-5.8,2.53,2.53,0,0,1,1.94-1A1.66,1.66,0,0,1,159,52.49ZM144.93,13.1a99.09,99.09,0,0,0-3.67,14.84,108.42,108.42,0,0,0-1.73,17A92.8,92.8,0,0,0,147.67,28a46.13,46.13,0,0,0,3-15.44q0-5.47-2-5.47C147.57,7.13,146.33,9.12,144.93,13.1Z"/><path class="cls-1" d="M154.73,64.8a12.93,12.93,0,0,1-2.67-8.5,23.33,23.33,0,0,1,2.67-10.9,22.57,22.57,0,0,1,7.09-8.28A16,16,0,0,1,171.21,34a2.8,2.8,0,0,1,2.13.62,5.13,5.13,0,0,1,.9,2.19,17,17,0,0,1,3.16-.29c2.36,0,3.53.84,3.53,2.52a53.93,53.93,0,0,1-1.08,7.2,70.12,70.12,0,0,0-1.65,11.52,2.61,2.61,0,0,0,.54,1.73,1.74,1.74,0,0,0,1.4.65,5.48,5.48,0,0,0,3.31-1.76,62,62,0,0,0,5.26-5.73,2.53,2.53,0,0,1,1.94-1,1.66,1.66,0,0,1,1.48.87,4.45,4.45,0,0,1,.54,2.37,6.64,6.64,0,0,1-1.37,4.47A36.52,36.52,0,0,1,185,65.52,10.7,10.7,0,0,1,178.63,68a6.72,6.72,0,0,1-4.36-1.62,9.86,9.86,0,0,1-3-4.43q-3.75,6-9.44,6.05A8.74,8.74,0,0,1,154.73,64.8Zm12.74-5.9a12.16,12.16,0,0,0,2.09-5l2.66-13.25A8.71,8.71,0,0,0,166.64,43a15.29,15.29,0,0,0-4.07,5.79,19.5,19.5,0,0,0-1.51,7.64,5.09,5.09,0,0,0,.9,3.31,3.06,3.06,0,0,0,2.48,1.08A4,4,0,0,0,167.47,58.9Z"/><path class="cls-1" d="M218.62,45.11a3.74,3.74,0,0,1,1.12,2.77,5.44,5.44,0,0,1-.43,2,12.26,12.26,0,0,1-3.24,4.46,6.9,6.9,0,0,1-4.61,1.8A4.61,4.61,0,0,1,208,54.72a5.32,5.32,0,0,1-1.4-3.89c0-.91,0-1.89.14-2.95a14.07,14.07,0,0,0,.14-1.58,1.29,1.29,0,0,0-.25-.87.79.79,0,0,0-.61-.29c-.67,0-1.58.81-2.74,2.42a35.44,35.44,0,0,0-3.45,6.37,51.83,51.83,0,0,0-2.81,8.35,11.51,11.51,0,0,1-1.8,4.61A4.19,4.19,0,0,1,192,68a3.92,3.92,0,0,1-3.85-2.88Q187,62.28,187,55.94a58.86,58.86,0,0,1,2.66-17.78,5.45,5.45,0,0,1,2.13-3.06,7.46,7.46,0,0,1,4.14-1,4,4,0,0,1,2,.36,1.47,1.47,0,0,1,.58,1.37A27.43,27.43,0,0,1,197.42,41q-.72,2.88-1.15,5a50.69,50.69,0,0,0-.72,5.33,40.66,40.66,0,0,1,5.33-10.08,21.09,21.09,0,0,1,5.76-5.55,10.26,10.26,0,0,1,5.11-1.65,4.14,4.14,0,0,1,3.2,1.19,4.88,4.88,0,0,1,1.12,3.49,32.17,32.17,0,0,1-.79,5.18h.64A3.68,3.68,0,0,1,218.62,45.11Z"/><path class="cls-1" d="M294.19,36A23.74,23.74,0,0,1,285,44.35a35.28,35.28,0,0,1-14.4,3.82l-3.09,17.35q-1.8,10-9.8,10a13.93,13.93,0,0,1-8.1-2.59A17.69,17.69,0,0,1,243.64,65a34.16,34.16,0,0,1-2.23-13.11q0-14.61,4.72-24.8T258.8,11.84a32,32,0,0,1,17.53-5.07,25.42,25.42,0,0,1,11.49,2.37,16.9,16.9,0,0,1,7.12,6.45,17.63,17.63,0,0,1,2.42,9.18A20.93,20.93,0,0,1,294.19,36Zm-7.56-10.58a10.24,10.24,0,0,0-3.13-7.74q-3.13-3-9.69-3a19.33,19.33,0,0,0-12.92,4.68,29.85,29.85,0,0,0-8.5,13,56,56,0,0,0-3,19,31.61,31.61,0,0,0,.9,7.92,15.74,15.74,0,0,0,2.31,5.36c.93,1.27,1.83,1.91,2.7,1.91q1.8,0,2.73-5L260.42,48c-1.87-.29-2.69-.41-2.45-.36a4.07,4.07,0,0,1-2.81-1.33,4.42,4.42,0,0,1-.64-2.48,3.43,3.43,0,0,1,.9-2.52,3.25,3.25,0,0,1,2.48-.94,5.82,5.82,0,0,1,1.08.07c1.15.19,2,.32,2.66.36q.94-5.61,2.67-15a5,5,0,0,1,2-3.49,6.37,6.37,0,0,1,3.63-1,5.19,5.19,0,0,1,3.42.9,3.55,3.55,0,0,1,1.05,2.84,9.45,9.45,0,0,1-.15,1.87l-2.37,14Q286.63,38.88,286.63,25.42Z"/><path class="cls-1" d="M295.12,64.8a13,13,0,0,1-2.66-8.5,23.44,23.44,0,0,1,2.66-10.9,22.59,22.59,0,0,1,7.1-8.28A16,16,0,0,1,311.61,34a2.8,2.8,0,0,1,2.13.62,5.13,5.13,0,0,1,.9,2.19,17,17,0,0,1,3.16-.29c2.36,0,3.53.84,3.53,2.52a53.93,53.93,0,0,1-1.08,7.2,70.12,70.12,0,0,0-1.65,11.52,2.61,2.61,0,0,0,.54,1.73,1.74,1.74,0,0,0,1.4.65,5.48,5.48,0,0,0,3.31-1.76,62,62,0,0,0,5.26-5.73,2.52,2.52,0,0,1,1.94-1,1.66,1.66,0,0,1,1.48.87,4.45,4.45,0,0,1,.54,2.37,6.64,6.64,0,0,1-1.37,4.47,36.52,36.52,0,0,1-6.26,6.19A10.7,10.7,0,0,1,319,68a6.72,6.72,0,0,1-4.36-1.62,10,10,0,0,1-3-4.43q-3.74,6-9.43,6.05A8.77,8.77,0,0,1,295.12,64.8Zm12.75-5.9a12.29,12.29,0,0,0,2.09-5l2.66-13.25A8.69,8.69,0,0,0,307,43,15.29,15.29,0,0,0,303,48.74a19.5,19.5,0,0,0-1.51,7.64,5.09,5.09,0,0,0,.9,3.31,3.06,3.06,0,0,0,2.48,1.08A4,4,0,0,0,307.87,58.9Z"/><path class="cls-1" d="M355.75,63.29a6.6,6.6,0,0,1,.28,1.94q0,3.24-4,3.24a4.6,4.6,0,0,1-3.42-1.22,11.7,11.7,0,0,1-2.19-4.61l-.07-.29a17.39,17.39,0,0,1-4.94,4.54A10.71,10.71,0,0,1,336.38,68a9.16,9.16,0,0,1-7.24-3.28,12.55,12.55,0,0,1-2.84-8.53,23.35,23.35,0,0,1,2.45-10.65,22,22,0,0,1,6.69-8A19.8,19.8,0,0,1,345,33.77a92.3,92.3,0,0,1,5.22-23.69Q354,0,360.43,0a6.15,6.15,0,0,1,5.14,2.81q2.06,2.81,2.06,8.49,0,7.92-3.89,18.51a145.29,145.29,0,0,1-10.3,21.81A96.31,96.31,0,0,0,355.75,63.29Zm-14.08-3.6a20.13,20.13,0,0,0,3.42-4.18,80,80,0,0,1-.72-10.87c0-1.49,0-2.64.07-3.46a11.54,11.54,0,0,0-6.55,5.26,16.64,16.64,0,0,0-2.59,9.07q0,5.27,3.6,5.26A4.35,4.35,0,0,0,341.67,59.69Zm14-42a197.31,197.31,0,0,0-2.48,23.19q8-17.28,8-28.08a15.09,15.09,0,0,0-.47-4.25c-.31-1-.68-1.51-1.12-1.51Q357.55,7.06,355.71,17.71Z"/></g></g></svg>